<svg width="24" height="24" viewBox="0 0 24 24" fill="none" xmlns="http://www.w3.org/2000/svg">
<path fill-rule="evenodd" clip-rule="evenodd" d="M9.55465 0.625C9.14982 0.624801 8.75324 0.739525 8.41105 0.955833C8.06885 1.17214 7.79508 1.48114 7.62158 1.84691C6.78579 1.85425 6.13573 1.89212 5.5541 2.1194C4.85978 2.391 4.25593 2.85256 3.81166 3.45129C3.36321 4.05369 3.15182 4.82838 2.86345 5.89267L2.80602 6.10039L2.17918 9.72214C1.95313 9.87855 1.7564 10.0643 1.58533 10.283C0.484387 11.6919 1.00859 13.7899 2.05699 17.9823C2.72293 20.6497 3.05651 21.9828 4.05115 22.76C5.04579 23.5359 6.42044 23.5359 9.16975 23.5359H14.8272C17.5765 23.5359 18.9512 23.5359 19.9458 22.76C20.9404 21.9828 21.2728 20.6497 21.94 17.9823C22.9884 13.7887 23.5126 11.6931 22.4116 10.283C22.2433 10.0662 22.0426 9.8766 21.8165 9.72092L21.1897 6.10162L21.1335 5.89389C20.8439 4.82838 20.6325 4.05369 20.1853 3.45006C19.7408 2.85179 19.137 2.39066 18.4428 2.1194C17.8612 1.89212 17.2099 1.85425 16.3754 1.84814C16.202 1.48214 15.9284 1.17288 15.5861 0.956349C15.2439 0.739817 14.8473 0.624911 14.4423 0.625H9.55465ZM19.8407 9.05131L19.3984 6.49996C19.0526 5.22917 18.9267 4.8296 18.7141 4.54368C18.4748 4.22122 18.1496 3.97265 17.7757 3.82641C17.5069 3.72133 17.1818 3.69078 16.3729 3.68223C16.1993 4.04716 15.9257 4.35541 15.584 4.57124C15.2423 4.78708 14.8465 4.90165 14.4423 4.9017H9.55465C9.15049 4.90165 8.75463 4.78708 8.41293 4.57124C8.07123 4.35541 7.7977 4.04716 7.62402 3.68223C6.8139 3.69078 6.49009 3.72133 6.22127 3.82641C5.84732 3.97265 5.5221 4.22122 5.28284 4.54368C5.07023 4.8296 4.94437 5.22795 4.59857 6.49874L4.15624 9.05131C5.3757 8.87292 7.00085 8.87292 9.16975 8.87292H14.8272C16.9961 8.87292 18.6212 8.87292 19.8407 9.05131ZM7.11082 12.8441C7.35388 12.8441 7.58697 12.9407 7.75884 13.1126C7.9307 13.2844 8.02726 13.5175 8.02726 13.7606V18.6482C8.02726 18.8913 7.9307 19.1244 7.75884 19.2962C7.58697 19.4681 7.35388 19.5647 7.11082 19.5647C6.86777 19.5647 6.63467 19.4681 6.4628 19.2962C6.29094 19.1244 6.19439 18.8913 6.19439 18.6482V13.7606C6.19439 13.5175 6.29094 13.2844 6.4628 13.1126C6.63467 12.9407 6.86777 12.8441 7.11082 12.8441ZM17.8026 13.7606C17.8026 13.5175 17.706 13.2844 17.5341 13.1126C17.3623 12.9407 17.1292 12.8441 16.8861 12.8441C16.6431 12.8441 16.41 12.9407 16.2381 13.1126C16.0662 13.2844 15.9697 13.5175 15.9697 13.7606V18.6482C15.9697 18.8913 16.0662 19.1244 16.2381 19.2962C16.41 19.4681 16.6431 19.5647 16.8861 19.5647C17.1292 19.5647 17.3623 19.4681 17.5341 19.2962C17.706 19.1244 17.8026 18.8913 17.8026 18.6482V13.7606ZM11.9985 12.8441C12.2415 12.8441 12.4746 12.9407 12.6465 13.1126C12.8184 13.2844 12.9149 13.5175 12.9149 13.7606V18.6482C12.9149 18.8913 12.8184 19.1244 12.6465 19.2962C12.4746 19.4681 12.2415 19.5647 11.9985 19.5647C11.7554 19.5647 11.5223 19.4681 11.3505 19.2962C11.1786 19.1244 11.082 18.8913 11.082 18.6482V13.7606C11.082 13.5175 11.1786 13.2844 11.3505 13.1126C11.5223 12.9407 11.7554 12.8441 11.9985 12.8441Z" fill="#747785"/>
</svg>
